<svg id="Capa_1" data-name="Capa 1" xmlns="http://www.w3.org/2000/svg" viewBox="0 0 39.16 31.85"><defs><style>.cls-1{fill:#294294;}.cls-1,.cls-2,.cls-3,.cls-4,.cls-5,.cls-6{fill-rule:evenodd;}.cls-2{fill:#c4e5eb;}.cls-3{fill:#6f4494;}.cls-4{fill:#10abde;}.cls-5{fill:#32b7bc;}.cls-6,.cls-7{fill:#1993be;}</style></defs><path class="cls-1" d="M38.42,26.26V24.87h-.86a5.58,5.58,0,0,0-.73.05,2.36,2.36,0,0,0-.6.18,1.07,1.07,0,0,0-.4.32.73.73,0,0,0-.15.47.77.77,0,0,0,.3.63,1.21,1.21,0,0,0,.79.25,2.66,2.66,0,0,0,.83-.13,4,4,0,0,0,.82-.38Zm1.87,1.88H38.42v-.41a3.09,3.09,0,0,1-1.05.47,4.66,4.66,0,0,1-1.13.13,2.78,2.78,0,0,1-1-.16,2.31,2.31,0,0,1-.77-.47A2,2,0,0,1,34,27a2.32,2.32,0,0,1-.17-.92,2.24,2.24,0,0,1,.27-1.12,2.42,2.42,0,0,1,.77-.79A3.44,3.44,0,0,1,36,23.68a5.56,5.56,0,0,1,1.38-.16h1.08A1.34,1.34,0,0,0,38,22.47a1.75,1.75,0,0,0-1.23-.39,2.33,2.33,0,0,0-1.64.66L34,21.62a4.23,4.23,0,0,1,1.38-.88A4.32,4.32,0,0,1,37,20.43a3.79,3.79,0,0,1,1.39.24,2.92,2.92,0,0,1,1,.64,2.72,2.72,0,0,1,.69,1.11,4.85,4.85,0,0,1,.2,1.56v4.16Zm-7.07-7.53-3.73,5.85h3.59v1.68H26.43l3.66-5.85H26.78V20.61Zm-8,7.53h-1.9V20.61h1.9v7.53Zm0-8.83h-2V17.36h2v1.95ZM22.21,28a2.14,2.14,0,0,1-.67.27,3.2,3.2,0,0,1-.75.09,3.36,3.36,0,0,1-1.12-.16,1.73,1.73,0,0,1-.73-.5,2.13,2.13,0,0,1-.39-.86,5.43,5.43,0,0,1-.13-1.22V22.3h-1v-.85a3.49,3.49,0,0,0,1.47-1.12,4.31,4.31,0,0,0,.78-1.92h.61v2.2h1.89V22.3H20.3v3.42a1.29,1.29,0,0,0,.07.47.73.73,0,0,0,.19.28.51.51,0,0,0,.26.14,1.12,1.12,0,0,0,.32,0,2.21,2.21,0,0,0,.53-.07,1.51,1.51,0,0,0,.54-.26V28ZM15,24.38a2.44,2.44,0,0,0-.17-.9,2.21,2.21,0,0,0-.46-.73,2,2,0,0,0-.68-.48,2,2,0,0,0-1.66,0,2,2,0,0,0-.68.48,2.21,2.21,0,0,0-.46.73,2.47,2.47,0,0,0,0,1.8,2.16,2.16,0,0,0,.46.72,2.08,2.08,0,0,0,.68.49,2,2,0,0,0,1.66,0,2.08,2.08,0,0,0,.68-.49,2.16,2.16,0,0,0,.46-.72,2.44,2.44,0,0,0,.17-.9Zm1.87,0A3.93,3.93,0,0,1,16.54,26a3.73,3.73,0,0,1-.86,1.24A4.18,4.18,0,0,1,14.4,28a4.23,4.23,0,0,1-3.13,0A4.26,4.26,0,0,1,10,27.19a4.09,4.09,0,0,1-.86-1.26,3.83,3.83,0,0,1-.31-1.55,3.79,3.79,0,0,1,.32-1.54A4.09,4.09,0,0,1,10,21.58a4.15,4.15,0,0,1,1.28-.85,4,4,0,0,1,1.54-.3,4.1,4.1,0,0,1,1.57.3,4.16,4.16,0,0,1,1.28.83,3.71,3.71,0,0,1,.86,1.26,3.85,3.85,0,0,1,.31,1.56ZM8.17,27a3.66,3.66,0,0,1-1.38,1,4.25,4.25,0,0,1-1.69.34A4,4,0,0,1,3.55,28,3.8,3.8,0,0,1,1.44,26a4.11,4.11,0,0,1,0-3.13,4.16,4.16,0,0,1,.84-1.25,3.81,3.81,0,0,1,1.26-.84,4,4,0,0,1,1.56-.3,4.3,4.3,0,0,1,1.63.31,3.61,3.61,0,0,1,1.35,1L6.81,23a2.56,2.56,0,0,0-.69-.62,2,2,0,0,0-1-.25,1.78,1.78,0,0,0-.81.19,2.47,2.47,0,0,0-.68.48,2.68,2.68,0,0,0-.46.72,2.43,2.43,0,0,0-.17.89,2.34,2.34,0,0,0,.17.88,2.4,2.4,0,0,0,.46.72,2,2,0,0,0,.67.49,2,2,0,0,0,.82.18,2.06,2.06,0,0,0,1-.26,2.3,2.3,0,0,0,.73-.69L8.17,27Z" transform="translate(-1.13 -1.8)"/><path class="cls-2" d="M23,12c-1-1.11-2.43-2.71-2.12-4.3.39-2,1.92-2.67,3.45-3.62a5.21,5.21,0,0,0,.8-.58,3.31,3.31,0,0,1-.63,4.23h0l-.06,0h0a4.79,4.79,0,0,0-.54.49,8.38,8.38,0,0,0-1,1.25A2.59,2.59,0,0,0,23,12Z" transform="translate(-1.13 -1.8)"/><path class="cls-1" d="M25.14,3c1.57,1.27,1.44,3.31-.77,4.84.4-.82-.6-2.37-2.45-2.61l-.31,0a3.89,3.89,0,1,0,3,6.42L26.11,14l-.77,1.33A7.27,7.27,0,0,1,17.45,3.09C19.61,1.57,23,1.23,25.14,3Z" transform="translate(-1.13 -1.8)"/><path class="cls-3" d="M25.14,3c1.57,1.27,1.44,3.31-.77,4.84.4-.82-.6-2.37-2.45-2.61l-.31,0A3.82,3.82,0,0,0,19.27,6h0A7.27,7.27,0,0,0,17,14.65a7.27,7.27,0,0,1,.48-11.56C19.61,1.57,23,1.23,25.14,3Z" transform="translate(-1.13 -1.8)"/><path class="cls-4" d="M25.45,15.22c1.64-1.4,1.95-2.92,1.37-3.94s-1.46-1.16-2.21-2.22a2,2,0,0,1-.38-1.16h0c-.12.1-.24.22-.37.35a8.38,8.38,0,0,0-1,1.25A2.59,2.59,0,0,0,23,12a6.52,6.52,0,0,0,1.12,1c.71.56,2,1,1.37,2.05a2.46,2.46,0,0,1-.32.37Z" transform="translate(-1.13 -1.8)"/><path class="cls-5" d="M22.54,6.43a.85.85,0,1,1-.85.84A.85.85,0,0,1,22.54,6.43Z" transform="translate(-1.13 -1.8)"/><path class="cls-6" d="M25.69,11.37a.85.85,0,1,1-.86-.83A.85.85,0,0,1,25.69,11.37Z" transform="translate(-1.13 -1.8)"/><path class="cls-2" d="M23,7.11a.22.22,0,0,1,.09.1.37.37,0,0,1,0,.14.45.45,0,0,1,0,.16.55.55,0,0,1-.08.15.63.63,0,0,1-.1.12.39.39,0,0,1-.1.08l-.11.06-.13,0,0-.25a.35.35,0,0,0,.28-.18.09.09,0,0,0,0-.06.13.13,0,0,0,0-.06.07.07,0,0,0,0,0l0-.05-.05,0h-.06a.16.16,0,0,0-.09,0l-.12.08-.13.07a.35.35,0,0,1-.13,0h-.14A.28.28,0,0,1,22,7.46a.26.26,0,0,1-.1-.11.44.44,0,0,1-.05-.15.39.39,0,0,1,0-.15A.55.55,0,0,1,22,6.9a.52.52,0,0,1,.18-.18.64.64,0,0,1,.19-.08l0,.25-.12,0-.1.1a.09.09,0,0,0,0,.06.18.18,0,0,0,0,.06.13.13,0,0,0,0,.06.08.08,0,0,0,0,0l.05,0a.06.06,0,0,0,.06,0l.09,0,.11-.07.16-.09a.43.43,0,0,1,.14,0h.13Z" transform="translate(-1.13 -1.8)"/><path class="cls-6" d="M22.61,10.76a5.63,5.63,0,0,0,2.09,2.11c.84.58,1.49,1,1.22,1.91l-.18.18c.41-1-.24-1.41-1.1-2a6.19,6.19,0,0,1-2-1.93A2.45,2.45,0,0,1,22.61,10.76Z" transform="translate(-1.13 -1.8)"/><path class="cls-6" d="M24,8.14c0,1.08,1,1.74,1.82,2.35a7,7,0,0,1,1,.83,2,2,0,0,1,.15.33,5.24,5.24,0,0,0-1.25-1.08c-.87-.61-1.79-1.26-1.86-2.33Z" transform="translate(-1.13 -1.8)"/><path class="cls-5" d="M22.67,5.36a5.2,5.2,0,0,0-1.46,2,4.75,4.75,0,0,0-.3,1.59,2,2,0,0,1-.09-.35,4.86,4.86,0,0,1,.29-1.27,5.29,5.29,0,0,1,1.44-2Z" transform="translate(-1.13 -1.8)"/><path class="cls-5" d="M24.45,7.33a8.52,8.52,0,0,0-1.87,2.24,2.56,2.56,0,0,0-.16,1.82l-.15-.17a2.6,2.6,0,0,1,.22-1.7,8.77,8.77,0,0,1,2-2.33A.66.66,0,0,1,24.45,7.33Z" transform="translate(-1.13 -1.8)"/><rect class="cls-7" x="23.81" y="11.25" width="2.04" height="0.26" transform="translate(-0.1 23) rotate(-54.05)"/><path class="cls-4" d="M25,11.88a.31.31,0,0,1-.11.09.34.34,0,0,1-.14,0h-.15a.48.48,0,0,1-.16-.08l-.12-.09a.39.39,0,0,1-.08-.1.24.24,0,0,1-.06-.11.5.5,0,0,1,0-.13l.25,0a.59.59,0,0,0,.07.16.43.43,0,0,0,.12.11.09.09,0,0,0,.06,0h.11l0,0s0,0,0-.05a.13.13,0,0,0,0-.06l0-.08a.62.62,0,0,0-.08-.12l-.08-.13a.5.5,0,0,1,0-.13.29.29,0,0,1,0-.13.2.2,0,0,1,.06-.14.38.38,0,0,1,.11-.11.33.33,0,0,1,.14,0,.45.45,0,0,1,.16,0l.15.07a.76.76,0,0,1,.18.18.46.46,0,0,1,.08.19l-.24.05a.33.33,0,0,0,0-.12.32.32,0,0,0-.1-.1L25,11H25l-.06,0,0,0s0,0,0,.05a.2.2,0,0,0,0,.07l0,.08.07.12a.6.6,0,0,1,.09.15.48.48,0,0,1,.05.14.57.57,0,0,1,0,.13Z" transform="translate(-1.13 -1.8)"/><path class="cls-3" d="M16.43,31.46a2.78,2.78,0,0,0,.46-.11,3.49,3.49,0,0,0,.48-.23,1.4,1.4,0,0,0,.43-.38,1.34,1.34,0,0,0,.26-.52A.26.26,0,0,0,18,30a.16.16,0,0,0-.11,0c-.39,0-.88.51-1.48,1.52Zm5.34-.13a6.25,6.25,0,0,1-1,.39,8.71,8.71,0,0,1-1.62.31,12.46,12.46,0,0,1-1.46.06,6,6,0,0,1-1.1-.11,1,1,0,0,1-.36-.15c-.26.49-.54,1.05-.83,1.71a.18.18,0,0,1-.17.11l-.07,0a.2.2,0,0,1-.09-.09.17.17,0,0,1,0-.14c0-.06.12-.27.28-.65a18.72,18.72,0,0,0,1-2.53.19.19,0,0,1,.07-.12.18.18,0,0,1,.14,0,.2.2,0,0,1,.12.08.19.19,0,0,1,0,.13.93.93,0,0,1,0,.19c.45-.59.86-.89,1.24-.89a.49.49,0,0,1,.4.18.58.58,0,0,1,.11.54,1.62,1.62,0,0,1-.51.86,2.6,2.6,0,0,1-.89.53,9.62,9.62,0,0,0,1.63,0,7.08,7.08,0,0,0,3.24-.86,1.29,1.29,0,0,1,.28-.38.73.73,0,0,1,.46-.19.5.5,0,0,1,.36.16.51.51,0,0,1,.12.35.69.69,0,0,1-.22.48.62.62,0,0,1-.46.19.61.61,0,0,1-.28-.07.62.62,0,0,0,.26.4c.94.69,2.88.08,3.67-.79a.18.18,0,0,1,.13-.06.17.17,0,0,1,.13,0,.27.27,0,0,1,.06.12.24.24,0,0,1-.05.14c-.85.91-3,1.67-4.15.83a1,1,0,0,1-.37-.5.74.74,0,0,1-.05-.25Zm.46-.37V31a.29.29,0,0,0,.21.08.37.37,0,0,0,.31-.32.13.13,0,0,0,0-.1.12.12,0,0,0-.09,0,.33.33,0,0,0-.22.1.87.87,0,0,0-.17.21Z" transform="translate(-1.13 -1.8)"/></svg>